<svg class="main-svg" xmlns="http://www.w3.org/2000/svg" xmlns:xlink="http://www.w3.org/1999/xlink" width="700" height="500" viewBox="0 0 700 500"><rect x="0" y="0" width="700" height="500" style="fill: rgb(255, 255, 255); fill-opacity: 1;"/><defs id="defs-d5588e"><g class="clips"><clipPath id="clipd5588exyplot" class="plotclip"><rect width="532" height="320"/></clipPath><clipPath class="axesclip" id="clipd5588ex"><rect x="80" y="0" width="532" height="500"/></clipPath><clipPath class="axesclip" id="clipd5588ey"><rect x="0" y="100" width="700" height="320"/></clipPath><clipPath class="axesclip" id="clipd5588exy"><rect x="80" y="100" width="532" height="320"/></clipPath></g><g class="gradients"><linearGradient x1="0" x2="0" y1="1" y2="0" id="gd5588e-cb994d58"><stop offset="0%" stop-color="rgb(68, 1, 84)" stop-opacity="1"/><stop offset="11.11111111111111%" stop-color="rgb(72, 40, 120)" stop-opacity="1"/><stop offset="22.22222222222222%" stop-color="rgb(62, 73, 137)" stop-opacity="1"/><stop offset="33.33333333333333%" stop-color="rgb(49, 104, 142)" stop-opacity="1"/><stop offset="44.44444444444444%" stop-color="rgb(38, 130, 142)" stop-opacity="1"/><stop offset="55.55555555555556%" stop-color="rgb(31, 158, 137)" stop-opacity="1"/><stop offset="66.66666666666666%" stop-color="rgb(53, 183, 121)" stop-opacity="1"/><stop offset="77.77777777777779%" stop-color="rgb(110, 206, 88)" stop-opacity="1"/><stop offset="88.88888888888889%" stop-color="rgb(181, 222, 43)" stop-opacity="1"/><stop offset="100%" stop-color="rgb(253, 231, 37)" stop-opacity="1"/></linearGradient></g></defs><g class="bglayer"/><g class="layer-below"><g class="imagelayer"/><g class="shapelayer"/></g><g class="cartesianlayer"><g class="subplot xy"><g class="layer-subplot"><g class="shapelayer"/><g class="imagelayer"/></g><g class="gridlayer"><g class="x"><path class="xgrid crisp" transform="translate(95.24,0)" d="M0,100v320" style="stroke: rgb(235, 240, 248); stroke-opacity: 1; stroke-width: 2px;"/><path class="xgrid crisp" transform="translate(155.17000000000002,0)" d="M0,100v320" style="stroke: rgb(235, 240, 248); stroke-opacity: 1; stroke-width: 2px;"/><path class="xgrid crisp" transform="translate(215.1,0)" d="M0,100v320" style="stroke: rgb(235, 240, 248); stroke-opacity: 1; stroke-width: 2px;"/><path class="xgrid crisp" transform="translate(294.33000000000004,0)" d="M0,100v320" style="stroke: rgb(235, 240, 248); stroke-opacity: 1; stroke-width: 2px;"/><path class="xgrid crisp" transform="translate(354.26,0)" d="M0,100v320" style="stroke: rgb(235, 240, 248); stroke-opacity: 1; stroke-width: 2px;"/><path class="xgrid crisp" transform="translate(414.19,0)" d="M0,100v320" style="stroke: rgb(235, 240, 248); stroke-opacity: 1; stroke-width: 2px;"/><path class="xgrid crisp" transform="translate(493.42,0)" d="M0,100v320" style="stroke: rgb(235, 240, 248); stroke-opacity: 1; stroke-width: 2px;"/><path class="xgrid crisp" transform="translate(553.35,0)" d="M0,100v320" style="stroke: rgb(235, 240, 248); stroke-opacity: 1; stroke-width: 2px;"/></g><g class="y"><path class="ygrid crisp" transform="translate(0,408.68)" d="M80,0h532" style="stroke: rgb(235, 240, 248); stroke-opacity: 1; stroke-width: 2px;"/><path class="ygrid crisp" transform="translate(0,367.52)" d="M80,0h532" style="stroke: rgb(235, 240, 248); stroke-opacity: 1; stroke-width: 2px;"/><path class="ygrid crisp" transform="translate(0,336.39)" d="M80,0h532" style="stroke: rgb(235, 240, 248); stroke-opacity: 1; stroke-width: 2px;"/><path class="ygrid crisp" transform="translate(0,305.25)" d="M80,0h532" style="stroke: rgb(235, 240, 248); stroke-opacity: 1; stroke-width: 2px;"/><path class="ygrid crisp" transform="translate(0,264.1)" d="M80,0h532" style="stroke: rgb(235, 240, 248); stroke-opacity: 1; stroke-width: 2px;"/><path class="ygrid crisp" transform="translate(0,232.96)" d="M80,0h532" style="stroke: rgb(235, 240, 248); stroke-opacity: 1; stroke-width: 2px;"/><path class="ygrid crisp" transform="translate(0,201.82999999999998)" d="M80,0h532" style="stroke: rgb(235, 240, 248); stroke-opacity: 1; stroke-width: 2px;"/><path class="ygrid crisp" transform="translate(0,160.67000000000002)" d="M80,0h532" style="stroke: rgb(235, 240, 248); stroke-opacity: 1; stroke-width: 2px;"/><path class="ygrid crisp" transform="translate(0,129.54)" d="M80,0h532" style="stroke: rgb(235, 240, 248); stroke-opacity: 1; stroke-width: 2px;"/></g></g><g class="zerolinelayer"/><path class="xlines-below"/><path class="ylines-below"/><g class="overlines-below"/><g class="xaxislayer-below"/><g class="yaxislayer-below"/><g class="overaxes-below"/><g class="plot" transform="translate(80, 100)" clip-path="url('#clipd5588exyplot')"><g class="scatterlayer mlayer"><g class="trace scatter trace994d58" style="stroke-miterlimit: 2; opacity: 1;"><g class="fills"/><g class="errorbars"/><g class="lines"/><g class="points"><path class="point" transform="translate(283.91,151.53)" d="M20.19,0A20.19,20.19 0 1,1 0,-20.19A20.19,20.19 0 0,1 20.19,0Z" style="opacity: 0.7; stroke-width: 1px; fill: rgb(72, 35, 116); fill-opacity: 1; stroke: rgb(255, 255, 255); stroke-opacity: 1;"/><path class="point" transform="translate(294.73,137.85)" d="M21.53,0A21.53,21.53 0 1,1 0,-21.53A21.53,21.53 0 0,1 21.53,0Z" style="opacity: 0.7; stroke-width: 1px; fill: rgb(71, 43, 122); fill-opacity: 1; stroke: rgb(255, 255, 255); stroke-opacity: 1;"/><path class="point" transform="translate(156.44,184.73)" d="M19.12,0A19.12,19.12 0 1,1 0,-19.12A19.12,19.12 0 0,1 19.12,0Z" style="opacity: 0.7; stroke-width: 1px; fill: rgb(68, 5, 87); fill-opacity: 1; stroke: rgb(255, 255, 255); stroke-opacity: 1;"/><path class="point" transform="translate(113.36,166.54)" d="M16.71,0A16.71,16.71 0 1,1 0,-16.71A16.71,16.71 0 0,1 16.71,0Z" style="opacity: 0.7; stroke-width: 1px; fill: rgb(68, 5, 88); fill-opacity: 1; stroke: rgb(255, 255, 255); stroke-opacity: 1;"/><path class="point" transform="translate(140.57,217.86)" d="M12.22,0A12.22,12.22 0 1,1 0,-12.22A12.22,12.22 0 0,1 12.22,0Z" style="opacity: 0.7; stroke-width: 1px; fill: rgb(68, 2, 85); fill-opacity: 1; stroke: rgb(255, 255, 255); stroke-opacity: 1;"/><path class="point" transform="translate(217.46,191.25)" d="M21.15,0A21.15,21.15 0 1,1 0,-21.15A21.15,21.15 0 0,1 21.15,0Z" style="opacity: 0.7; stroke-width: 1px; fill: rgb(70, 20, 101); fill-opacity: 1; stroke: rgb(255, 255, 255); stroke-opacity: 1;"/><path class="point" transform="translate(241.65,158.69)" d="M18.17,0A18.17,18.17 0 1,1 0,-18.17A18.17,18.17 0 0,1 18.17,0Z" style="opacity: 0.7; stroke-width: 1px; fill: rgb(71, 30, 110); fill-opacity: 1; stroke: rgb(255, 255, 255); stroke-opacity: 1;"/><path class="point" transform="translate(124.13,226.88)" d="M12.56,0A12.56,12.56 0 1,1 0,-12.56A12.56,12.56 0 0,1 12.56,0Z" style="opacity: 0.7; stroke-width: 1px; fill: rgb(68, 2, 85); fill-opacity: 1; stroke: rgb(255, 255, 255); stroke-opacity: 1;"/><path class="point" transform="translate(175.19,212.62)" d="M17.96,0A17.96,17.96 0 1,1 0,-17.96A17.96,17.96 0 0,1 17.96,0Z" style="opacity: 0.7; stroke-width: 1px; fill: rgb(70, 22, 103); fill-opacity: 1; stroke: rgb(255, 255, 255); stroke-opacity: 1;"/><path class="point" transform="translate(387.38,81.78)" d="M33.53,0A33.53,33.53 0 1,1 0,-33.53A33.53,33.53 0 0,1 33.53,0Z" style="opacity: 0.7; stroke-width: 1px; fill: rgb(55, 184, 120); fill-opacity: 1; stroke: rgb(255, 255, 255); stroke-opacity: 1;"/><path class="point" transform="translate(465.87,55.53)" d="M35.36,0A35.36,35.36 0 1,1 0,-35.36A35.36,35.36 0 0,1 35.36,0Z" style="opacity: 0.7; stroke-width: 1px; fill: rgb(192, 223, 42); fill-opacity: 1; stroke: rgb(255, 255, 255); stroke-opacity: 1;"/><path class="point" transform="translate(284.25,131.49)" d="M21.23,0A21.23,21.23 0 1,1 0,-21.23A21.23,21.23 0 0,1 21.23,0Z" style="opacity: 0.7; stroke-width: 1px; fill: rgb(70, 20, 102); fill-opacity: 1; stroke: rgb(255, 255, 255); stroke-opacity: 1;"/><path class="point" transform="translate(241,174.31)" d="M20.74,0A20.74,20.74 0 1,1 0,-20.74A20.74,20.74 0 0,1 20.74,0Z" style="opacity: 0.7; stroke-width: 1px; fill: rgb(69, 13, 95); fill-opacity: 1; stroke: rgb(255, 255, 255); stroke-opacity: 1;"/><path class="point" transform="translate(253.33,152.96)" d="M17.36,0A17.36,17.36 0 1,1 0,-17.36A17.36,17.36 0 0,1 17.36,0Z" style="opacity: 0.7; stroke-width: 1px; fill: rgb(71, 28, 109); fill-opacity: 1; stroke: rgb(255, 255, 255); stroke-opacity: 1;"/><path class="point" transform="translate(380.94,113.25)" d="M32.71,0A32.71,32.71 0 1,1 0,-32.71A32.71,32.71 0 0,1 32.71,0Z" style="opacity: 0.7; stroke-width: 1px; fill: rgb(35, 143, 140); fill-opacity: 1; stroke: rgb(255, 255, 255); stroke-opacity: 1;"/><path class="point" transform="translate(74.44,210.68)" d="M13.84,0A13.84,13.84 0 1,1 0,-13.84A13.84,13.84 0 0,1 13.84,0Z" style="opacity: 0.7; stroke-width: 1px; fill: rgb(68, 2, 85); fill-opacity: 1; stroke: rgb(255, 255, 255); stroke-opacity: 1;"/><path class="point" transform="translate(136.68,166)" d="M15.21,0A15.21,15.21 0 1,1 0,-15.21A15.21,15.21 0 0,1 15.21,0Z" style="opacity: 0.7; stroke-width: 1px; fill: rgb(68, 4, 87); fill-opacity: 1; stroke: rgb(255, 255, 255); stroke-opacity: 1;"/><path class="point" transform="translate(152.22,221.82)" d="M10.3,0A10.3,10.3 0 1,1 0,-10.3A10.3,10.3 0 0,1 10.3,0Z" style="opacity: 0.7; stroke-width: 1px; fill: rgb(68, 5, 88); fill-opacity: 1; stroke: rgb(255, 255, 255); stroke-opacity: 1;"/><path class="point" transform="translate(142.06,252.28)" d="M9.7,0A9.7,9.7 0 1,1 0,-9.7A9.7,9.7 0 0,1 9.7,0Z" style="opacity: 0.7; stroke-width: 1px; fill: rgb(68, 1, 84); fill-opacity: 1; stroke: rgb(255, 255, 255); stroke-opacity: 1;"/><path class="point" transform="translate(329.6,129.41)" d="M23.86,0A23.86,23.86 0 1,1 0,-23.86A23.86,23.86 0 0,1 23.86,0Z" style="opacity: 0.7; stroke-width: 1px; fill: rgb(63, 70, 136); fill-opacity: 1; stroke: rgb(255, 255, 255); stroke-opacity: 1;"/><path class="point" transform="translate(338.15,97.86)" d="M29.11,0A29.11,29.11 0 1,1 0,-29.11A29.11,29.11 0 0,1 29.11,0Z" style="opacity: 0.7; stroke-width: 1px; fill: rgb(70, 48, 124); fill-opacity: 1; stroke: rgb(255, 255, 255); stroke-opacity: 1;"/><path class="point" transform="translate(187.45,184.49)" d="M21.01,0A21.01,21.01 0 1,1 0,-21.01A21.01,21.01 0 0,1 21.01,0Z" style="opacity: 0.7; stroke-width: 1px; fill: rgb(70, 20, 101); fill-opacity: 1; stroke: rgb(255, 255, 255); stroke-opacity: 1;"/><path class="point" transform="translate(323.84,93.23)" d="M24.67,0A24.67,24.67 0 1,1 0,-24.67A24.67,24.67 0 0,1 24.67,0Z" style="opacity: 0.7; stroke-width: 1px; fill: rgb(70, 18, 99); fill-opacity: 1; stroke: rgb(255, 255, 255); stroke-opacity: 1;"/><path class="point" transform="translate(46.62,283.98)" d="M17.91,0A17.91,17.91 0 1,1 0,-17.91A17.91,17.91 0 0,1 17.91,0Z" style="opacity: 0.7; stroke-width: 1px; fill: rgb(69, 9, 91); fill-opacity: 1; stroke: rgb(255, 255, 255); stroke-opacity: 1;"/><path class="point" transform="translate(129.79,211.11)" d="M14.06,0A14.06,14.06 0 1,1 0,-14.06A14.06,14.06 0 0,1 14.06,0Z" style="opacity: 0.7; stroke-width: 1px; fill: rgb(68, 4, 87); fill-opacity: 1; stroke: rgb(255, 255, 255); stroke-opacity: 1;"/><path class="point" transform="translate(418.81,74.34)" d="M30.63,0A30.63,30.63 0 1,1 0,-30.63A30.63,30.63 0 0,1 30.63,0Z" style="opacity: 0.7; stroke-width: 1px; fill: rgb(47, 108, 142); fill-opacity: 1; stroke: rgb(255, 255, 255); stroke-opacity: 1;"/><path class="point" transform="translate(306.08,168.22)" d="M20.88,0A20.88,20.88 0 1,1 0,-20.88A20.88,20.88 0 0,1 20.88,0Z" style="opacity: 0.7; stroke-width: 1px; fill: rgb(70, 46, 123); fill-opacity: 1; stroke: rgb(255, 255, 255); stroke-opacity: 1;"/><path class="point" transform="translate(435.33,75.47)" d="M33.43,0A33.43,33.43 0 1,1 0,-33.43A33.43,33.43 0 0,1 33.43,0Z" style="opacity: 0.7; stroke-width: 1px; fill: rgb(52, 182, 122); fill-opacity: 1; stroke: rgb(255, 255, 255); stroke-opacity: 1;"/></g><g class="text"/></g></g></g><g class="overplot"/><path class="xlines-above crisp" d="M0,0" style="fill: none;"/><path class="ylines-above crisp" d="M0,0" style="fill: none;"/><g class="overlines-above"/><g class="xaxislayer-above"><g class="xtick"><text text-anchor="middle" x="0" y="430" transform="translate(95.24,0)" style="font-family: 'Open Sans', verdana, arial, sans-serif; font-size: 9px; fill: rgb(42, 63, 95); fill-opacity: 1; white-space: pre;">5</text></g><g class="xtick"><text text-anchor="middle" x="0" y="433" transform="translate(155.17000000000002,0)" style="font-family: 'Open Sans', verdana, arial, sans-serif; font-size: 12px; fill: rgb(42, 63, 95); fill-opacity: 1; white-space: pre;">10k</text></g><g class="xtick"><text text-anchor="middle" x="0" y="430" transform="translate(215.1,0)" style="font-family: 'Open Sans', verdana, arial, sans-serif; font-size: 9px; fill: rgb(42, 63, 95); fill-opacity: 1; white-space: pre;">2</text></g><g class="xtick"><text text-anchor="middle" x="0" y="430" transform="translate(294.33000000000004,0)" style="font-family: 'Open Sans', verdana, arial, sans-serif; font-size: 9px; fill: rgb(42, 63, 95); fill-opacity: 1; white-space: pre;">5</text></g><g class="xtick"><text text-anchor="middle" x="0" y="433" transform="translate(354.26,0)" style="font-family: 'Open Sans', verdana, arial, sans-serif; font-size: 12px; fill: rgb(42, 63, 95); fill-opacity: 1; white-space: pre;">100k</text></g><g class="xtick"><text text-anchor="middle" x="0" y="430" transform="translate(414.19,0)" style="font-family: 'Open Sans', verdana, arial, sans-serif; font-size: 9px; fill: rgb(42, 63, 95); fill-opacity: 1; white-space: pre;">2</text></g><g class="xtick"><text text-anchor="middle" x="0" y="430" transform="translate(493.42,0)" style="font-family: 'Open Sans', verdana, arial, sans-serif; font-size: 9px; fill: rgb(42, 63, 95); fill-opacity: 1; white-space: pre;">5</text></g><g class="xtick"><text text-anchor="middle" x="0" y="433" transform="translate(553.35,0)" style="font-family: 'Open Sans', verdana, arial, sans-serif; font-size: 12px; fill: rgb(42, 63, 95); fill-opacity: 1; white-space: pre;">1M</text></g></g><g class="yaxislayer-above"><g class="ytick"><text text-anchor="end" x="79" y="3.15" transform="translate(0,408.68)" style="font-family: 'Open Sans', verdana, arial, sans-serif; font-size: 9px; fill: rgb(42, 63, 95); fill-opacity: 1; white-space: pre;">2</text></g><g class="ytick"><text text-anchor="end" x="79" y="3.15" transform="translate(0,367.52)" style="font-family: 'Open Sans', verdana, arial, sans-serif; font-size: 9px; fill: rgb(42, 63, 95); fill-opacity: 1; white-space: pre;">5</text></g><g class="ytick"><text text-anchor="end" x="79" y="4.199999999999999" transform="translate(0,336.39)" style="font-family: 'Open Sans', verdana, arial, sans-serif; font-size: 12px; fill: rgb(42, 63, 95); fill-opacity: 1; white-space: pre;">10k</text></g><g class="ytick"><text text-anchor="end" x="79" y="3.15" transform="translate(0,305.25)" style="font-family: 'Open Sans', verdana, arial, sans-serif; font-size: 9px; fill: rgb(42, 63, 95); fill-opacity: 1; white-space: pre;">2</text></g><g class="ytick"><text text-anchor="end" x="79" y="3.15" transform="translate(0,264.1)" style="font-family: 'Open Sans', verdana, arial, sans-serif; font-size: 9px; fill: rgb(42, 63, 95); fill-opacity: 1; white-space: pre;">5</text></g><g class="ytick"><text text-anchor="end" x="79" y="4.199999999999999" transform="translate(0,232.96)" style="font-family: 'Open Sans', verdana, arial, sans-serif; font-size: 12px; fill: rgb(42, 63, 95); fill-opacity: 1; white-space: pre;">100k</text></g><g class="ytick"><text text-anchor="end" x="79" y="3.15" transform="translate(0,201.82999999999998)" style="font-family: 'Open Sans', verdana, arial, sans-serif; font-size: 9px; fill: rgb(42, 63, 95); fill-opacity: 1; white-space: pre;">2</text></g><g class="ytick"><text text-anchor="end" x="79" y="3.15" transform="translate(0,160.67000000000002)" style="font-family: 'Open Sans', verdana, arial, sans-serif; font-size: 9px; fill: rgb(42, 63, 95); fill-opacity: 1; white-space: pre;">5</text></g><g class="ytick"><text text-anchor="end" x="79" y="4.199999999999999" transform="translate(0,129.54)" style="font-family: 'Open Sans', verdana, arial, sans-serif; font-size: 12px; fill: rgb(42, 63, 95); fill-opacity: 1; white-space: pre;">1M</text></g></g><g class="overaxes-above"/></g></g><g class="polarlayer"/><g class="ternarylayer"/><g class="geolayer"/><g class="funnelarealayer"/><g class="pielayer"/><g class="treemaplayer"/><g class="sunburstlayer"/><g class="glimages"/><defs id="topdefs-d5588e"><g class="clips"/></defs><g class="layer-above"><g class="imagelayer"/><g class="shapelayer"/></g><g class="infolayer"><g class="cb994d58 colorbar" transform="translate(80,100)"><rect class="cbbg" x="543" y="0" width="64.859375" height="320" style="fill: rgb(0, 0, 0); fill-opacity: 0; stroke: rgb(68, 68, 68); stroke-opacity: 1; stroke-width: 0;"/><g class="cbfills" transform="translate(0,10)"><rect class="cbfill" x="553" width="30" y="0" height="300" style="stroke: none; fill: url('#gd5588e-cb994d58');"/></g><g class="cblines" transform="translate(0,10)"/><g class="cbaxis crisp" transform="translate(0,-100)"><g class="ycb994d58tick"><text text-anchor="start" x="585.9" y="4.199999999999999" transform="translate(0,340.57)" style="font-family: 'Open Sans', verdana, arial, sans-serif; font-size: 12px; fill: rgb(42, 63, 95); fill-opacity: 1; white-space: pre;">1T</text></g><g class="ycb994d58tick"><text text-anchor="start" x="585.9" y="4.199999999999999" transform="translate(0,270.23)" style="font-family: 'Open Sans', verdana, arial, sans-serif; font-size: 12px; fill: rgb(42, 63, 95); fill-opacity: 1; white-space: pre;">2T</text></g><g class="ycb994d58tick"><text text-anchor="start" x="585.9" y="4.199999999999999" transform="translate(0,199.89)" style="font-family: 'Open Sans', verdana, arial, sans-serif; font-size: 12px; fill: rgb(42, 63, 95); fill-opacity: 1; white-space: pre;">3T</text></g><g class="ycb994d58tick"><text text-anchor="start" x="585.9" y="4.199999999999999" transform="translate(0,129.55)" style="font-family: 'Open Sans', verdana, arial, sans-serif; font-size: 12px; fill: rgb(42, 63, 95); fill-opacity: 1; white-space: pre;">4T</text></g></g><g class="cbtitleunshift" transform="translate(-80,-100)"><g class="cbtitle"/></g><rect class="cboutline" x="553" y="10" width="30" height="300" style="stroke: rgb(68, 68, 68); stroke-opacity: 1; fill: none; stroke-width: 0;"/></g><g class="g-gtitle"><text class="gtitle" x="35" y="50" text-anchor="start" dy="0em" style="font-family: 'Open Sans', verdana, arial, sans-serif; font-size: 17px; fill: rgb(42, 63, 95); opacity: 1; font-weight: normal; white-space: pre;">Emigration v. Immigration, 2017</text></g><g class="g-xtitle"><text class="xtitle" x="346" y="461.8" text-anchor="middle" style="font-family: 'Open Sans', verdana, arial, sans-serif; font-size: 14px; fill: rgb(42, 63, 95); opacity: 1; font-weight: normal; white-space: pre;">Immigration</text></g><g class="g-ytitle"><text class="ytitle" transform="rotate(-90,27.309375000000003,260)" x="27.309375000000003" y="260" text-anchor="middle" style="font-family: 'Open Sans', verdana, arial, sans-serif; font-size: 14px; fill: rgb(42, 63, 95); opacity: 1; font-weight: normal; white-space: pre;">Emigration</text></g></g></svg>