<svg class="main-svg" xmlns="http://www.w3.org/2000/svg" xmlns:xlink="http://www.w3.org/1999/xlink" width="700" height="500" viewBox="0 0 700 500"><rect x="0" y="0" width="700" height="500" style="fill: rgb(255, 255, 255); fill-opacity: 1;"/><defs id="defs-9f4e34"><g class="clips"><clipPath id="clip9f4e34xyplot" class="plotclip"><rect width="524" height="320"/></clipPath><clipPath class="axesclip" id="clip9f4e34x"><rect x="80" y="0" width="524" height="500"/></clipPath><clipPath class="axesclip" id="clip9f4e34y"><rect x="0" y="100" width="700" height="320"/></clipPath><clipPath class="axesclip" id="clip9f4e34xy"><rect x="80" y="100" width="524" height="320"/></clipPath></g><g class="gradients"><linearGradient x1="0" x2="0" y1="1" y2="0" id="g9f4e34-cb744343"><stop offset="0%" stop-color="rgb(68, 1, 84)" stop-opacity="1"/><stop offset="11.11111111111111%" stop-color="rgb(72, 40, 120)" stop-opacity="1"/><stop offset="22.22222222222222%" stop-color="rgb(62, 73, 137)" stop-opacity="1"/><stop offset="33.33333333333333%" stop-color="rgb(49, 104, 142)" stop-opacity="1"/><stop offset="44.44444444444444%" stop-color="rgb(38, 130, 142)" stop-opacity="1"/><stop offset="55.55555555555556%" stop-color="rgb(31, 158, 137)" stop-opacity="1"/><stop offset="66.66666666666666%" stop-color="rgb(53, 183, 121)" stop-opacity="1"/><stop offset="77.77777777777779%" stop-color="rgb(110, 206, 88)" stop-opacity="1"/><stop offset="88.88888888888889%" stop-color="rgb(181, 222, 43)" stop-opacity="1"/><stop offset="100%" stop-color="rgb(253, 231, 37)" stop-opacity="1"/></linearGradient></g></defs><g class="bglayer"/><g class="layer-below"><g class="imagelayer"/><g class="shapelayer"/></g><g class="cartesianlayer"><g class="subplot xy"><g class="layer-subplot"><g class="shapelayer"/><g class="imagelayer"/></g><g class="gridlayer"><g class="x"><path class="xgrid crisp" transform="translate(95.37,0)" d="M0,100v320" style="stroke: rgb(235, 240, 248); stroke-opacity: 1; stroke-width: 2px;"/><path class="xgrid crisp" transform="translate(154.28,0)" d="M0,100v320" style="stroke: rgb(235, 240, 248); stroke-opacity: 1; stroke-width: 2px;"/><path class="xgrid crisp" transform="translate(213.18,0)" d="M0,100v320" style="stroke: rgb(235, 240, 248); stroke-opacity: 1; stroke-width: 2px;"/><path class="xgrid crisp" transform="translate(291.05,0)" d="M0,100v320" style="stroke: rgb(235, 240, 248); stroke-opacity: 1; stroke-width: 2px;"/><path class="xgrid crisp" transform="translate(349.95,0)" d="M0,100v320" style="stroke: rgb(235, 240, 248); stroke-opacity: 1; stroke-width: 2px;"/><path class="xgrid crisp" transform="translate(408.86,0)" d="M0,100v320" style="stroke: rgb(235, 240, 248); stroke-opacity: 1; stroke-width: 2px;"/><path class="xgrid crisp" transform="translate(486.72,0)" d="M0,100v320" style="stroke: rgb(235, 240, 248); stroke-opacity: 1; stroke-width: 2px;"/><path class="xgrid crisp" transform="translate(545.62,0)" d="M0,100v320" style="stroke: rgb(235, 240, 248); stroke-opacity: 1; stroke-width: 2px;"/></g><g class="y"><path class="ygrid crisp" transform="translate(0,408.68)" d="M80,0h524" style="stroke: rgb(235, 240, 248); stroke-opacity: 1; stroke-width: 2px;"/><path class="ygrid crisp" transform="translate(0,367.52)" d="M80,0h524" style="stroke: rgb(235, 240, 248); stroke-opacity: 1; stroke-width: 2px;"/><path class="ygrid crisp" transform="translate(0,336.39)" d="M80,0h524" style="stroke: rgb(235, 240, 248); stroke-opacity: 1; stroke-width: 2px;"/><path class="ygrid crisp" transform="translate(0,305.25)" d="M80,0h524" style="stroke: rgb(235, 240, 248); stroke-opacity: 1; stroke-width: 2px;"/><path class="ygrid crisp" transform="translate(0,264.1)" d="M80,0h524" style="stroke: rgb(235, 240, 248); stroke-opacity: 1; stroke-width: 2px;"/><path class="ygrid crisp" transform="translate(0,232.96)" d="M80,0h524" style="stroke: rgb(235, 240, 248); stroke-opacity: 1; stroke-width: 2px;"/><path class="ygrid crisp" transform="translate(0,201.82999999999998)" d="M80,0h524" style="stroke: rgb(235, 240, 248); stroke-opacity: 1; stroke-width: 2px;"/><path class="ygrid crisp" transform="translate(0,160.67000000000002)" d="M80,0h524" style="stroke: rgb(235, 240, 248); stroke-opacity: 1; stroke-width: 2px;"/><path class="ygrid crisp" transform="translate(0,129.54)" d="M80,0h524" style="stroke: rgb(235, 240, 248); stroke-opacity: 1; stroke-width: 2px;"/></g></g><g class="zerolinelayer"/><path class="xlines-below"/><path class="ylines-below"/><g class="overlines-below"/><g class="xaxislayer-below"/><g class="yaxislayer-below"/><g class="overaxes-below"/><g class="plot" transform="translate(80, 100)" clip-path="url('#clip9f4e34xyplot')"><g class="scatterlayer mlayer"><g class="trace scatter trace744343" style="stroke-miterlimit: 2; opacity: 1;"><g class="fills"/><g class="errorbars"/><g class="lines"/><g class="points"><path class="point" transform="translate(279.43,151.53)" d="M20.19,0A20.19,20.19 0 1,1 0,-20.19A20.19,20.19 0 0,1 20.19,0Z" style="opacity: 0.7; stroke-width: 1px; fill: rgb(41, 169, 130); fill-opacity: 1; stroke: rgb(255, 255, 255); stroke-opacity: 1;"/><path class="point" transform="translate(290.06,137.85)" d="M21.53,0A21.53,21.53 0 1,1 0,-21.53A21.53,21.53 0 0,1 21.53,0Z" style="opacity: 0.7; stroke-width: 1px; fill: rgb(48, 177, 125); fill-opacity: 1; stroke: rgb(255, 255, 255); stroke-opacity: 1;"/><path class="point" transform="translate(154.15,184.73)" d="M19.12,0A19.12,19.12 0 1,1 0,-19.12A19.12,19.12 0 0,1 19.12,0Z" style="opacity: 0.7; stroke-width: 1px; fill: rgb(57, 84, 139); fill-opacity: 1; stroke: rgb(255, 255, 255); stroke-opacity: 1;"/><path class="point" transform="translate(111.81,166.54)" d="M16.71,0A16.71,16.71 0 1,1 0,-16.71A16.71,16.71 0 0,1 16.71,0Z" style="opacity: 0.7; stroke-width: 1px; fill: rgb(56, 87, 139); fill-opacity: 1; stroke: rgb(255, 255, 255); stroke-opacity: 1;"/><path class="point" transform="translate(138.56,217.86)" d="M12.22,0A12.22,12.22 0 1,1 0,-12.22A12.22,12.22 0 0,1 12.22,0Z" style="opacity: 0.7; stroke-width: 1px; fill: rgb(71, 43, 122); fill-opacity: 1; stroke: rgb(255, 255, 255); stroke-opacity: 1;"/><path class="point" transform="translate(214.13,191.25)" d="M21.15,0A21.15,21.15 0 1,1 0,-21.15A21.15,21.15 0 0,1 21.15,0Z" style="opacity: 0.7; stroke-width: 1px; fill: rgb(34, 145, 139); fill-opacity: 1; stroke: rgb(255, 255, 255); stroke-opacity: 1;"/><path class="point" transform="translate(237.9,158.69)" d="M18.17,0A18.17,18.17 0 1,1 0,-18.17A18.17,18.17 0 0,1 18.17,0Z" style="opacity: 0.7; stroke-width: 1px; fill: rgb(35, 162, 134); fill-opacity: 1; stroke: rgb(255, 255, 255); stroke-opacity: 1;"/><path class="point" transform="translate(122.4,226.88)" d="M12.56,0A12.56,12.56 0 1,1 0,-12.56A12.56,12.56 0 0,1 12.56,0Z" style="opacity: 0.7; stroke-width: 1px; fill: rgb(72, 41, 121); fill-opacity: 1; stroke: rgb(255, 255, 255); stroke-opacity: 1;"/><path class="point" transform="translate(172.58,212.62)" d="M17.96,0A17.96,17.96 0 1,1 0,-17.96A17.96,17.96 0 0,1 17.96,0Z" style="opacity: 0.7; stroke-width: 1px; fill: rgb(33, 149, 139); fill-opacity: 1; stroke: rgb(255, 255, 255); stroke-opacity: 1;"/><path class="point" transform="translate(381.13,81.78)" d="M33.53,0A33.53,33.53 0 1,1 0,-33.53A33.53,33.53 0 0,1 33.53,0Z" style="opacity: 0.7; stroke-width: 1px; fill: rgb(209, 225, 41); fill-opacity: 1; stroke: rgb(255, 255, 255); stroke-opacity: 1;"/><path class="point" transform="translate(458.27,55.53)" d="M35.36,0A35.36,35.36 0 1,1 0,-35.36A35.36,35.36 0 0,1 35.36,0Z" style="opacity: 0.7; stroke-width: 1px; fill: rgb(242, 230, 38); fill-opacity: 1; stroke: rgb(255, 255, 255); stroke-opacity: 1;"/><path class="point" transform="translate(279.77,131.49)" d="M21.23,0A21.23,21.23 0 1,1 0,-21.23A21.23,21.23 0 0,1 21.23,0Z" style="opacity: 0.7; stroke-width: 1px; fill: rgb(34, 146, 139); fill-opacity: 1; stroke: rgb(255, 255, 255); stroke-opacity: 1;"/><path class="point" transform="translate(237.27,174.31)" d="M20.74,0A20.74,20.74 0 1,1 0,-20.74A20.74,20.74 0 0,1 20.74,0Z" style="opacity: 0.7; stroke-width: 1px; fill: rgb(40, 126, 142); fill-opacity: 1; stroke: rgb(255, 255, 255); stroke-opacity: 1;"/><path class="point" transform="translate(249.38,152.96)" d="M17.36,0A17.36,17.36 0 1,1 0,-17.36A17.36,17.36 0 0,1 17.36,0Z" style="opacity: 0.7; stroke-width: 1px; fill: rgb(33, 160, 136); fill-opacity: 1; stroke: rgb(255, 255, 255); stroke-opacity: 1;"/><path class="point" transform="translate(374.8,113.25)" d="M32.71,0A32.71,32.71 0 1,1 0,-32.71A32.71,32.71 0 0,1 32.71,0Z" style="opacity: 0.7; stroke-width: 1px; fill: rgb(175, 221, 47); fill-opacity: 1; stroke: rgb(255, 255, 255); stroke-opacity: 1;"/><path class="point" transform="translate(73.56,210.68)" d="M13.84,0A13.84,13.84 0 1,1 0,-13.84A13.84,13.84 0 0,1 13.84,0Z" style="opacity: 0.7; stroke-width: 1px; fill: rgb(69, 50, 125); fill-opacity: 1; stroke: rgb(255, 255, 255); stroke-opacity: 1;"/><path class="point" transform="translate(134.73,166)" d="M15.21,0A15.21,15.21 0 1,1 0,-15.21A15.21,15.21 0 0,1 15.21,0Z" style="opacity: 0.7; stroke-width: 1px; fill: rgb(62, 74, 137); fill-opacity: 1; stroke: rgb(255, 255, 255); stroke-opacity: 1;"/><path class="point" transform="translate(150.01,221.82)" d="M10.3,0A10.3,10.3 0 1,1 0,-10.3A10.3,10.3 0 0,1 10.3,0Z" style="opacity: 0.7; stroke-width: 1px; fill: rgb(55, 89, 140); fill-opacity: 1; stroke: rgb(255, 255, 255); stroke-opacity: 1;"/><path class="point" transform="translate(140.02,252.28)" d="M9.7,0A9.7,9.7 0 1,1 0,-9.7A9.7,9.7 0 0,1 9.7,0Z" style="opacity: 0.7; stroke-width: 1px; fill: rgb(68, 1, 84); fill-opacity: 1; stroke: rgb(255, 255, 255); stroke-opacity: 1;"/><path class="point" transform="translate(324.34,129.41)" d="M23.86,0A23.86,23.86 0 1,1 0,-23.86A23.86,23.86 0 0,1 23.86,0Z" style="opacity: 0.7; stroke-width: 1px; fill: rgb(88, 197, 100); fill-opacity: 1; stroke: rgb(255, 255, 255); stroke-opacity: 1;"/><path class="point" transform="translate(332.74,97.86)" d="M29.11,0A29.11,29.11 0 1,1 0,-29.11A29.11,29.11 0 0,1 29.11,0Z" style="opacity: 0.7; stroke-width: 1px; fill: rgb(52, 182, 122); fill-opacity: 1; stroke: rgb(255, 255, 255); stroke-opacity: 1;"/><path class="point" transform="translate(184.63,184.49)" d="M21.01,0A21.01,21.01 0 1,1 0,-21.01A21.01,21.01 0 0,1 21.01,0Z" style="opacity: 0.7; stroke-width: 1px; fill: rgb(34, 145, 139); fill-opacity: 1; stroke: rgb(255, 255, 255); stroke-opacity: 1;"/><path class="point" transform="translate(318.68,93.23)" d="M24.67,0A24.67,24.67 0 1,1 0,-24.67A24.67,24.67 0 0,1 24.67,0Z" style="opacity: 0.7; stroke-width: 1px; fill: rgb(35, 140, 140); fill-opacity: 1; stroke: rgb(255, 255, 255); stroke-opacity: 1;"/><path class="point" transform="translate(46.22,283.98)" d="M17.91,0A17.91,17.91 0 1,1 0,-17.91A17.91,17.91 0 0,1 17.91,0Z" style="opacity: 0.7; stroke-width: 1px; fill: rgb(46, 112, 142); fill-opacity: 1; stroke: rgb(255, 255, 255); stroke-opacity: 1;"/><path class="point" transform="translate(127.96,211.11)" d="M14.06,0A14.06,14.06 0 1,1 0,-14.06A14.06,14.06 0 0,1 14.06,0Z" style="opacity: 0.7; stroke-width: 1px; fill: rgb(60, 79, 138); fill-opacity: 1; stroke: rgb(255, 255, 255); stroke-opacity: 1;"/><path class="point" transform="translate(412.01,74.34)" d="M30.63,0A30.63,30.63 0 1,1 0,-30.63A30.63,30.63 0 0,1 30.63,0Z" style="opacity: 0.7; stroke-width: 1px; fill: rgb(137, 212, 71); fill-opacity: 1; stroke: rgb(255, 255, 255); stroke-opacity: 1;"/><path class="point" transform="translate(301.23,168.22)" d="M20.88,0A20.88,20.88 0 1,1 0,-20.88A20.88,20.88 0 0,1 20.88,0Z" style="opacity: 0.7; stroke-width: 1px; fill: rgb(51, 180, 123); fill-opacity: 1; stroke: rgb(255, 255, 255); stroke-opacity: 1;"/><path class="point" transform="translate(428.26,75.47)" d="M33.43,0A33.43,33.43 0 1,1 0,-33.43A33.43,33.43 0 0,1 33.43,0Z" style="opacity: 0.7; stroke-width: 1px; fill: rgb(207, 225, 41); fill-opacity: 1; stroke: rgb(255, 255, 255); stroke-opacity: 1;"/></g><g class="text"/></g></g></g><g class="overplot"/><path class="xlines-above crisp" d="M0,0" style="fill: none;"/><path class="ylines-above crisp" d="M0,0" style="fill: none;"/><g class="overlines-above"/><g class="xaxislayer-above"><g class="xtick"><text text-anchor="middle" x="0" y="430" transform="translate(95.37,0)" style="font-family: 'Open Sans', verdana, arial, sans-serif; font-size: 9px; fill: rgb(42, 63, 95); fill-opacity: 1; white-space: pre;">5</text></g><g class="xtick"><text text-anchor="middle" x="0" y="433" transform="translate(154.28,0)" style="font-family: 'Open Sans', verdana, arial, sans-serif; font-size: 12px; fill: rgb(42, 63, 95); fill-opacity: 1; white-space: pre;">10k</text></g><g class="xtick"><text text-anchor="middle" x="0" y="430" transform="translate(213.18,0)" style="font-family: 'Open Sans', verdana, arial, sans-serif; font-size: 9px; fill: rgb(42, 63, 95); fill-opacity: 1; white-space: pre;">2</text></g><g class="xtick"><text text-anchor="middle" x="0" y="430" transform="translate(291.05,0)" style="font-family: 'Open Sans', verdana, arial, sans-serif; font-size: 9px; fill: rgb(42, 63, 95); fill-opacity: 1; white-space: pre;">5</text></g><g class="xtick"><text text-anchor="middle" x="0" y="433" transform="translate(349.95,0)" style="font-family: 'Open Sans', verdana, arial, sans-serif; font-size: 12px; fill: rgb(42, 63, 95); fill-opacity: 1; white-space: pre;">100k</text></g><g class="xtick"><text text-anchor="middle" x="0" y="430" transform="translate(408.86,0)" style="font-family: 'Open Sans', verdana, arial, sans-serif; font-size: 9px; fill: rgb(42, 63, 95); fill-opacity: 1; white-space: pre;">2</text></g><g class="xtick"><text text-anchor="middle" x="0" y="430" transform="translate(486.72,0)" style="font-family: 'Open Sans', verdana, arial, sans-serif; font-size: 9px; fill: rgb(42, 63, 95); fill-opacity: 1; white-space: pre;">5</text></g><g class="xtick"><text text-anchor="middle" x="0" y="433" transform="translate(545.62,0)" style="font-family: 'Open Sans', verdana, arial, sans-serif; font-size: 12px; fill: rgb(42, 63, 95); fill-opacity: 1; white-space: pre;">1M</text></g></g><g class="yaxislayer-above"><g class="ytick"><text text-anchor="end" x="79" y="3.15" transform="translate(0,408.68)" style="font-family: 'Open Sans', verdana, arial, sans-serif; font-size: 9px; fill: rgb(42, 63, 95); fill-opacity: 1; white-space: pre;">2</text></g><g class="ytick"><text text-anchor="end" x="79" y="3.15" transform="translate(0,367.52)" style="font-family: 'Open Sans', verdana, arial, sans-serif; font-size: 9px; fill: rgb(42, 63, 95); fill-opacity: 1; white-space: pre;">5</text></g><g class="ytick"><text text-anchor="end" x="79" y="4.199999999999999" transform="translate(0,336.39)" style="font-family: 'Open Sans', verdana, arial, sans-serif; font-size: 12px; fill: rgb(42, 63, 95); fill-opacity: 1; white-space: pre;">10k</text></g><g class="ytick"><text text-anchor="end" x="79" y="3.15" transform="translate(0,305.25)" style="font-family: 'Open Sans', verdana, arial, sans-serif; font-size: 9px; fill: rgb(42, 63, 95); fill-opacity: 1; white-space: pre;">2</text></g><g class="ytick"><text text-anchor="end" x="79" y="3.15" transform="translate(0,264.1)" style="font-family: 'Open Sans', verdana, arial, sans-serif; font-size: 9px; fill: rgb(42, 63, 95); fill-opacity: 1; white-space: pre;">5</text></g><g class="ytick"><text text-anchor="end" x="79" y="4.199999999999999" transform="translate(0,232.96)" style="font-family: 'Open Sans', verdana, arial, sans-serif; font-size: 12px; fill: rgb(42, 63, 95); fill-opacity: 1; white-space: pre;">100k</text></g><g class="ytick"><text text-anchor="end" x="79" y="3.15" transform="translate(0,201.82999999999998)" style="font-family: 'Open Sans', verdana, arial, sans-serif; font-size: 9px; fill: rgb(42, 63, 95); fill-opacity: 1; white-space: pre;">2</text></g><g class="ytick"><text text-anchor="end" x="79" y="3.15" transform="translate(0,160.67000000000002)" style="font-family: 'Open Sans', verdana, arial, sans-serif; font-size: 9px; fill: rgb(42, 63, 95); fill-opacity: 1; white-space: pre;">5</text></g><g class="ytick"><text text-anchor="end" x="79" y="4.199999999999999" transform="translate(0,129.54)" style="font-family: 'Open Sans', verdana, arial, sans-serif; font-size: 12px; fill: rgb(42, 63, 95); fill-opacity: 1; white-space: pre;">1M</text></g></g><g class="overaxes-above"/></g></g><g class="polarlayer"/><g class="ternarylayer"/><g class="geolayer"/><g class="funnelarealayer"/><g class="pielayer"/><g class="treemaplayer"/><g class="sunburstlayer"/><g class="glimages"/><defs id="topdefs-9f4e34"><g class="clips"/></defs><g class="layer-above"><g class="imagelayer"/><g class="shapelayer"/></g><g class="infolayer"><g class="cb744343 colorbar" transform="translate(80,100)"><rect class="cbbg" x="534" y="0" width="73.90625" height="320" style="fill: rgb(0, 0, 0); fill-opacity: 0; stroke: rgb(68, 68, 68); stroke-opacity: 1; stroke-width: 0;"/><g class="cbfills" transform="translate(0,32)"><rect class="cbfill" x="544" width="30" y="0" height="278" style="stroke: none; fill: url('#g9f4e34-cb744343');"/></g><g class="cblines" transform="translate(0,32)"/><g class="cbaxis crisp" transform="translate(0,-100)"><g class="ycb744343tick"><text text-anchor="start" x="576.9" y="4.199999999999999" transform="translate(0,367.21000000000004)" style="font-family: 'Open Sans', verdana, arial, sans-serif; font-size: 12px; fill: rgb(42, 63, 95); fill-opacity: 1; white-space: pre;">10.5</text></g><g class="ycb744343tick"><text text-anchor="start" x="576.9" y="4.199999999999999" transform="translate(0,312.03)" style="font-family: 'Open Sans', verdana, arial, sans-serif; font-size: 12px; fill: rgb(42, 63, 95); fill-opacity: 1; white-space: pre;">11</text></g><g class="ycb744343tick"><text text-anchor="start" x="576.9" y="4.199999999999999" transform="translate(0,256.85)" style="font-family: 'Open Sans', verdana, arial, sans-serif; font-size: 12px; fill: rgb(42, 63, 95); fill-opacity: 1; white-space: pre;">11.5</text></g><g class="ycb744343tick"><text text-anchor="start" x="576.9" y="4.199999999999999" transform="translate(0,201.66)" style="font-family: 'Open Sans', verdana, arial, sans-serif; font-size: 12px; fill: rgb(42, 63, 95); fill-opacity: 1; white-space: pre;">12</text></g><g class="ycb744343tick"><text text-anchor="start" x="576.9" y="4.199999999999999" transform="translate(0,146.48)" style="font-family: 'Open Sans', verdana, arial, sans-serif; font-size: 12px; fill: rgb(42, 63, 95); fill-opacity: 1; white-space: pre;">12.5</text></g></g><g class="cbtitleunshift" transform="translate(-80,-100)"><g class="cbtitle" transform="translate(0,0)"><text class="ycb744343title" x="624.48" y="122" text-anchor="start" style="font-family: 'Open Sans', verdana, arial, sans-serif; font-size: 12px; fill: rgb(42, 63, 95); opacity: 1; font-weight: normal; white-space: pre;"><tspan style="font-weight:bold">GDP, log</tspan></text></g></g><rect class="cboutline" x="544" y="32" width="30" height="278" style="stroke: rgb(68, 68, 68); stroke-opacity: 1; fill: none; stroke-width: 0;"/></g><g class="g-gtitle"><text class="gtitle" x="35" y="50" text-anchor="start" dy="0em" style="font-family: 'Open Sans', verdana, arial, sans-serif; font-size: 17px; fill: rgb(42, 63, 95); opacity: 1; font-weight: normal; white-space: pre;"><tspan style="font-weight:bold">Emigration v. Immigration, 2017</tspan></text></g><g class="g-xtitle"><text class="xtitle" x="342" y="461.8" text-anchor="middle" style="font-family: 'Open Sans', verdana, arial, sans-serif; font-size: 14px; fill: rgb(42, 63, 95); opacity: 1; font-weight: normal; white-space: pre;"><tspan style="font-weight:bold">Immigration</tspan></text></g><g class="g-ytitle"><text class="ytitle" transform="rotate(-90,27.309375000000003,260)" x="27.309375000000003" y="260" text-anchor="middle" style="font-family: 'Open Sans', verdana, arial, sans-serif; font-size: 14px; fill: rgb(42, 63, 95); opacity: 1; font-weight: normal; white-space: pre;"><tspan style="font-weight:bold">Emigration</tspan></text></g></g></svg>