<svg class="main-svg" xmlns="http://www.w3.org/2000/svg" xmlns:xlink="http://www.w3.org/1999/xlink" width="700" height="500" viewBox="0 0 700 500"><rect x="0" y="0" width="700" height="500" style="fill: rgb(243, 243, 243); fill-opacity: 1;"/><defs id="defs-972340"><g class="clips"><clipPath id="clip972340xyplot" class="plotclip"><rect width="532" height="320"/></clipPath><clipPath class="axesclip" id="clip972340x"><rect x="80" y="0" width="532" height="500"/></clipPath><clipPath class="axesclip" id="clip972340y"><rect x="0" y="100" width="700" height="320"/></clipPath><clipPath class="axesclip" id="clip972340xy"><rect x="80" y="100" width="532" height="320"/></clipPath></g><g class="gradients"><linearGradient x1="0" x2="0" y1="1" y2="0" id="g972340-cb3a32de"><stop offset="0%" stop-color="rgb(68, 1, 84)" stop-opacity="1"/><stop offset="11.11111111111111%" stop-color="rgb(72, 40, 120)" stop-opacity="1"/><stop offset="22.22222222222222%" stop-color="rgb(62, 73, 137)" stop-opacity="1"/><stop offset="33.33333333333333%" stop-color="rgb(49, 104, 142)" stop-opacity="1"/><stop offset="44.44444444444444%" stop-color="rgb(38, 130, 142)" stop-opacity="1"/><stop offset="55.55555555555556%" stop-color="rgb(31, 158, 137)" stop-opacity="1"/><stop offset="66.66666666666666%" stop-color="rgb(53, 183, 121)" stop-opacity="1"/><stop offset="77.77777777777779%" stop-color="rgb(110, 206, 88)" stop-opacity="1"/><stop offset="88.88888888888889%" stop-color="rgb(181, 222, 43)" stop-opacity="1"/><stop offset="100%" stop-color="rgb(253, 231, 37)" stop-opacity="1"/></linearGradient></g></defs><g class="bglayer"/><g class="layer-below"><g class="imagelayer"/><g class="shapelayer"/></g><g class="cartesianlayer"><g class="subplot xy"><g class="layer-subplot"><g class="shapelayer"/><g class="imagelayer"/></g><g class="gridlayer"><g class="x"><path class="xgrid crisp" transform="translate(105.38,0)" d="M0,100v320" style="stroke: rgb(255, 255, 255); stroke-opacity: 1; stroke-width: 2px;"/><path class="xgrid crisp" transform="translate(161.78,0)" d="M0,100v320" style="stroke: rgb(255, 255, 255); stroke-opacity: 1; stroke-width: 2px;"/><path class="xgrid crisp" transform="translate(218.19,0)" d="M0,100v320" style="stroke: rgb(255, 255, 255); stroke-opacity: 1; stroke-width: 2px;"/><path class="xgrid crisp" transform="translate(292.75,0)" d="M0,100v320" style="stroke: rgb(255, 255, 255); stroke-opacity: 1; stroke-width: 2px;"/><path class="xgrid crisp" transform="translate(349.16,0)" d="M0,100v320" style="stroke: rgb(255, 255, 255); stroke-opacity: 1; stroke-width: 2px;"/><path class="xgrid crisp" transform="translate(405.57,0)" d="M0,100v320" style="stroke: rgb(255, 255, 255); stroke-opacity: 1; stroke-width: 2px;"/><path class="xgrid crisp" transform="translate(480.13,0)" d="M0,100v320" style="stroke: rgb(255, 255, 255); stroke-opacity: 1; stroke-width: 2px;"/><path class="xgrid crisp" transform="translate(536.54,0)" d="M0,100v320" style="stroke: rgb(255, 255, 255); stroke-opacity: 1; stroke-width: 2px;"/><path class="xgrid crisp" transform="translate(592.95,0)" d="M0,100v320" style="stroke: rgb(255, 255, 255); stroke-opacity: 1; stroke-width: 2px;"/></g><g class="y"><path class="ygrid crisp" transform="translate(0,397.72)" d="M80,0h532" style="stroke: rgb(255, 255, 255); stroke-opacity: 1; stroke-width: 2px;"/><path class="ygrid crisp" transform="translate(0,361)" d="M80,0h532" style="stroke: rgb(255, 255, 255); stroke-opacity: 1; stroke-width: 2px;"/><path class="ygrid crisp" transform="translate(0,333.23)" d="M80,0h532" style="stroke: rgb(255, 255, 255); stroke-opacity: 1; stroke-width: 2px;"/><path class="ygrid crisp" transform="translate(0,305.46000000000004)" d="M80,0h532" style="stroke: rgb(255, 255, 255); stroke-opacity: 1; stroke-width: 2px;"/><path class="ygrid crisp" transform="translate(0,268.75)" d="M80,0h532" style="stroke: rgb(255, 255, 255); stroke-opacity: 1; stroke-width: 2px;"/><path class="ygrid crisp" transform="translate(0,240.98)" d="M80,0h532" style="stroke: rgb(255, 255, 255); stroke-opacity: 1; stroke-width: 2px;"/><path class="ygrid crisp" transform="translate(0,213.2)" d="M80,0h532" style="stroke: rgb(255, 255, 255); stroke-opacity: 1; stroke-width: 2px;"/><path class="ygrid crisp" transform="translate(0,176.49)" d="M80,0h532" style="stroke: rgb(255, 255, 255); stroke-opacity: 1; stroke-width: 2px;"/><path class="ygrid crisp" transform="translate(0,148.72)" d="M80,0h532" style="stroke: rgb(255, 255, 255); stroke-opacity: 1; stroke-width: 2px;"/><path class="ygrid crisp" transform="translate(0,120.95)" d="M80,0h532" style="stroke: rgb(255, 255, 255); stroke-opacity: 1; stroke-width: 2px;"/></g></g><g class="zerolinelayer"/><path class="xlines-below"/><path class="ylines-below"/><g class="overlines-below"/><g class="xaxislayer-below"/><g class="yaxislayer-below"/><g class="overaxes-below"/><g class="plot" transform="translate(80, 100)" clip-path="url('#clip972340xyplot')"><g class="scatterlayer mlayer"><g class="trace scatter trace3a32de" style="stroke-miterlimit: 2; opacity: 1;"><g class="fills"/><g class="errorbars"/><g class="lines"/><g class="points"><path class="point" transform="translate(278.24,157.54)" d="M28.56,0A28.56,28.56 0 1,1 0,-28.56A28.56,28.56 0 0,1 28.56,0Z" style="opacity: 0.7; stroke-width: 1.4px; fill: rgb(72, 35, 116); fill-opacity: 1; stroke: rgb(255, 255, 255); stroke-opacity: 1;"/><path class="point" transform="translate(288.42,145.34)" d="M30.45,0A30.45,30.45 0 1,1 0,-30.45A30.45,30.45 0 0,1 30.45,0Z" style="opacity: 0.7; stroke-width: 1.4px; fill: rgb(71, 43, 122); fill-opacity: 1; stroke: rgb(255, 255, 255); stroke-opacity: 1;"/><path class="point" transform="translate(158.27,187.15)" d="M27.05,0A27.05,27.05 0 1,1 0,-27.05A27.05,27.05 0 0,1 27.05,0Z" style="opacity: 0.7; stroke-width: 1.4px; fill: rgb(68, 5, 87); fill-opacity: 1; stroke: rgb(255, 255, 255); stroke-opacity: 1;"/><path class="point" transform="translate(117.72,170.93)" d="M23.63,0A23.63,23.63 0 1,1 0,-23.63A23.63,23.63 0 0,1 23.63,0Z" style="opacity: 0.7; stroke-width: 1.4px; fill: rgb(68, 5, 88); fill-opacity: 1; stroke: rgb(255, 255, 255); stroke-opacity: 1;"/><path class="point" transform="translate(143.34,216.71)" d="M17.28,0A17.28,17.28 0 1,1 0,-17.28A17.28,17.28 0 0,1 17.28,0Z" style="opacity: 0.7; stroke-width: 1.4px; fill: rgb(68, 2, 85); fill-opacity: 1; stroke: rgb(255, 255, 255); stroke-opacity: 1;"/><path class="point" transform="translate(215.71,192.97)" d="M29.92,0A29.92,29.92 0 1,1 0,-29.92A29.92,29.92 0 0,1 29.92,0Z" style="opacity: 0.7; stroke-width: 1.4px; fill: rgb(70, 20, 101); fill-opacity: 1; stroke: rgb(255, 255, 255); stroke-opacity: 1;"/><path class="point" transform="translate(238.47,163.92)" d="M25.7,0A25.7,25.7 0 1,1 0,-25.7A25.7,25.7 0 0,1 25.7,0Z" style="opacity: 0.7; stroke-width: 1.4px; fill: rgb(71, 30, 110); fill-opacity: 1; stroke: rgb(255, 255, 255); stroke-opacity: 1;"/><path class="point" transform="translate(127.86,224.75)" d="M17.77,0A17.77,17.77 0 1,1 0,-17.77A17.77,17.77 0 0,1 17.77,0Z" style="opacity: 0.7; stroke-width: 1.4px; fill: rgb(68, 2, 85); fill-opacity: 1; stroke: rgb(255, 255, 255); stroke-opacity: 1;"/><path class="point" transform="translate(175.92,212.04)" d="M25.4,0A25.4,25.4 0 1,1 0,-25.4A25.4,25.4 0 0,1 25.4,0Z" style="opacity: 0.7; stroke-width: 1.4px; fill: rgb(70, 22, 103); fill-opacity: 1; stroke: rgb(255, 255, 255); stroke-opacity: 1;"/><path class="point" transform="translate(375.62,95.32)" d="M47.42,0A47.42,47.42 0 1,1 0,-47.42A47.42,47.42 0 0,1 47.42,0Z" style="opacity: 0.7; stroke-width: 1.4px; fill: rgb(55, 184, 120); fill-opacity: 1; stroke: rgb(255, 255, 255); stroke-opacity: 1;"/><path class="point" transform="translate(449.5,71.9)" d="M50,0A50,50 0 1,1 0,-50A50,50 0 0,1 50,0Z" style="opacity: 0.7; stroke-width: 1.4px; fill: rgb(192, 223, 42); fill-opacity: 1; stroke: rgb(255, 255, 255); stroke-opacity: 1;"/><path class="point" transform="translate(278.56,139.67)" d="M30.03,0A30.03,30.03 0 1,1 0,-30.03A30.03,30.03 0 0,1 30.03,0Z" style="opacity: 0.7; stroke-width: 1.4px; fill: rgb(70, 20, 102); fill-opacity: 1; stroke: rgb(255, 255, 255); stroke-opacity: 1;"/><path class="point" transform="translate(237.86,177.86)" d="M29.33,0A29.33,29.33 0 1,1 0,-29.33A29.33,29.33 0 0,1 29.33,0Z" style="opacity: 0.7; stroke-width: 1.4px; fill: rgb(69, 13, 95); fill-opacity: 1; stroke: rgb(255, 255, 255); stroke-opacity: 1;"/><path class="point" transform="translate(249.46,158.82)" d="M24.55,0A24.55,24.55 0 1,1 0,-24.55A24.55,24.55 0 0,1 24.55,0Z" style="opacity: 0.7; stroke-width: 1.4px; fill: rgb(71, 28, 109); fill-opacity: 1; stroke: rgb(255, 255, 255); stroke-opacity: 1;"/><path class="point" transform="translate(369.57,123.39)" d="M46.25,0A46.25,46.25 0 1,1 0,-46.25A46.25,46.25 0 0,1 46.25,0Z" style="opacity: 0.7; stroke-width: 1.4px; fill: rgb(35, 143, 140); fill-opacity: 1; stroke: rgb(255, 255, 255); stroke-opacity: 1;"/><path class="point" transform="translate(81.1,210.3)" d="M19.58,0A19.58,19.58 0 1,1 0,-19.58A19.58,19.58 0 0,1 19.58,0Z" style="opacity: 0.7; stroke-width: 1.4px; fill: rgb(68, 2, 85); fill-opacity: 1; stroke: rgb(255, 255, 255); stroke-opacity: 1;"/><path class="point" transform="translate(139.67,170.45)" d="M21.5,0A21.5,21.5 0 1,1 0,-21.5A21.5,21.5 0 0,1 21.5,0Z" style="opacity: 0.7; stroke-width: 1.4px; fill: rgb(68, 4, 87); fill-opacity: 1; stroke: rgb(255, 255, 255); stroke-opacity: 1;"/><path class="point" transform="translate(154.3,220.24)" d="M14.57,0A14.57,14.57 0 1,1 0,-14.57A14.57,14.57 0 0,1 14.57,0Z" style="opacity: 0.7; stroke-width: 1.4px; fill: rgb(68, 5, 88); fill-opacity: 1; stroke: rgb(255, 255, 255); stroke-opacity: 1;"/><path class="point" transform="translate(144.74,247.41)" d="M13.72,0A13.72,13.72 0 1,1 0,-13.72A13.72,13.72 0 0,1 13.72,0Z" style="opacity: 0.7; stroke-width: 1.4px; fill: rgb(68, 1, 84); fill-opacity: 1; stroke: rgb(255, 255, 255); stroke-opacity: 1;"/><path class="point" transform="translate(321.24,137.81)" d="M33.74,0A33.74,33.74 0 1,1 0,-33.74A33.74,33.74 0 0,1 33.74,0Z" style="opacity: 0.7; stroke-width: 1.4px; fill: rgb(63, 70, 136); fill-opacity: 1; stroke: rgb(255, 255, 255); stroke-opacity: 1;"/><path class="point" transform="translate(329.29,109.66)" d="M41.16,0A41.16,41.16 0 1,1 0,-41.16A41.16,41.16 0 0,1 41.16,0Z" style="opacity: 0.7; stroke-width: 1.4px; fill: rgb(70, 48, 124); fill-opacity: 1; stroke: rgb(255, 255, 255); stroke-opacity: 1;"/><path class="point" transform="translate(187.45,186.94)" d="M29.71,0A29.71,29.71 0 1,1 0,-29.71A29.71,29.71 0 0,1 29.71,0Z" style="opacity: 0.7; stroke-width: 1.4px; fill: rgb(70, 20, 101); fill-opacity: 1; stroke: rgb(255, 255, 255); stroke-opacity: 1;"/><path class="point" transform="translate(315.83,105.54)" d="M34.89,0A34.89,34.89 0 1,1 0,-34.89A34.89,34.89 0 0,1 34.89,0Z" style="opacity: 0.7; stroke-width: 1.4px; fill: rgb(70, 18, 99); fill-opacity: 1; stroke: rgb(255, 255, 255); stroke-opacity: 1;"/><path class="point" transform="translate(54.91,275.69)" d="M25.32,0A25.32,25.32 0 1,1 0,-25.32A25.32,25.32 0 0,1 25.32,0Z" style="opacity: 0.7; stroke-width: 1.4px; fill: rgb(69, 9, 91); fill-opacity: 1; stroke: rgb(255, 255, 255); stroke-opacity: 1;"/><path class="point" transform="translate(133.19,210.69)" d="M19.88,0A19.88,19.88 0 1,1 0,-19.88A19.88,19.88 0 0,1 19.88,0Z" style="opacity: 0.7; stroke-width: 1.4px; fill: rgb(68, 4, 87); fill-opacity: 1; stroke: rgb(255, 255, 255); stroke-opacity: 1;"/><path class="point" transform="translate(405.2,88.68)" d="M43.32,0A43.32,43.32 0 1,1 0,-43.32A43.32,43.32 0 0,1 43.32,0Z" style="opacity: 0.7; stroke-width: 1.4px; fill: rgb(47, 108, 142); fill-opacity: 1; stroke: rgb(255, 255, 255); stroke-opacity: 1;"/><path class="point" transform="translate(299.11,172.42)" d="M29.53,0A29.53,29.53 0 1,1 0,-29.53A29.53,29.53 0 0,1 29.53,0Z" style="opacity: 0.7; stroke-width: 1.4px; fill: rgb(70, 46, 123); fill-opacity: 1; stroke: rgb(255, 255, 255); stroke-opacity: 1;"/><path class="point" transform="translate(420.76,89.69)" d="M47.28,0A47.28,47.28 0 1,1 0,-47.28A47.28,47.28 0 0,1 47.28,0Z" style="opacity: 0.7; stroke-width: 1.4px; fill: rgb(52, 182, 122); fill-opacity: 1; stroke: rgb(255, 255, 255); stroke-opacity: 1;"/></g><g class="text"/></g></g></g><g class="overplot"/><path class="xlines-above crisp" d="M0,0" style="fill: none;"/><path class="ylines-above crisp" d="M0,0" style="fill: none;"/><g class="overlines-above"/><g class="xaxislayer-above"><g class="xtick"><text text-anchor="middle" x="0" y="430" transform="translate(105.38,0)" style="font-family: 'Open Sans', verdana, arial, sans-serif; font-size: 9px; fill: rgb(42, 63, 95); fill-opacity: 1; white-space: pre;">5</text></g><g class="xtick"><text text-anchor="middle" x="0" y="433" transform="translate(161.78,0)" style="font-family: 'Open Sans', verdana, arial, sans-serif; font-size: 12px; fill: rgb(42, 63, 95); fill-opacity: 1; white-space: pre;">10k</text></g><g class="xtick"><text text-anchor="middle" x="0" y="430" transform="translate(218.19,0)" style="font-family: 'Open Sans', verdana, arial, sans-serif; font-size: 9px; fill: rgb(42, 63, 95); fill-opacity: 1; white-space: pre;">2</text></g><g class="xtick"><text text-anchor="middle" x="0" y="430" transform="translate(292.75,0)" style="font-family: 'Open Sans', verdana, arial, sans-serif; font-size: 9px; fill: rgb(42, 63, 95); fill-opacity: 1; white-space: pre;">5</text></g><g class="xtick"><text text-anchor="middle" x="0" y="433" transform="translate(349.16,0)" style="font-family: 'Open Sans', verdana, arial, sans-serif; font-size: 12px; fill: rgb(42, 63, 95); fill-opacity: 1; white-space: pre;">100k</text></g><g class="xtick"><text text-anchor="middle" x="0" y="430" transform="translate(405.57,0)" style="font-family: 'Open Sans', verdana, arial, sans-serif; font-size: 9px; fill: rgb(42, 63, 95); fill-opacity: 1; white-space: pre;">2</text></g><g class="xtick"><text text-anchor="middle" x="0" y="430" transform="translate(480.13,0)" style="font-family: 'Open Sans', verdana, arial, sans-serif; font-size: 9px; fill: rgb(42, 63, 95); fill-opacity: 1; white-space: pre;">5</text></g><g class="xtick"><text text-anchor="middle" x="0" y="433" transform="translate(536.54,0)" style="font-family: 'Open Sans', verdana, arial, sans-serif; font-size: 12px; fill: rgb(42, 63, 95); fill-opacity: 1; white-space: pre;">1M</text></g><g class="xtick"><text text-anchor="middle" x="0" y="430" transform="translate(592.95,0)" style="font-family: 'Open Sans', verdana, arial, sans-serif; font-size: 9px; fill: rgb(42, 63, 95); fill-opacity: 1; white-space: pre;">2</text></g></g><g class="yaxislayer-above"><g class="ytick"><text text-anchor="end" x="79" y="3.15" transform="translate(0,397.72)" style="font-family: 'Open Sans', verdana, arial, sans-serif; font-size: 9px; fill: rgb(42, 63, 95); fill-opacity: 1; white-space: pre;">2</text></g><g class="ytick"><text text-anchor="end" x="79" y="3.15" transform="translate(0,361)" style="font-family: 'Open Sans', verdana, arial, sans-serif; font-size: 9px; fill: rgb(42, 63, 95); fill-opacity: 1; white-space: pre;">5</text></g><g class="ytick"><text text-anchor="end" x="79" y="4.199999999999999" transform="translate(0,333.23)" style="font-family: 'Open Sans', verdana, arial, sans-serif; font-size: 12px; fill: rgb(42, 63, 95); fill-opacity: 1; white-space: pre;">10k</text></g><g class="ytick"><text text-anchor="end" x="79" y="3.15" transform="translate(0,305.46000000000004)" style="font-family: 'Open Sans', verdana, arial, sans-serif; font-size: 9px; fill: rgb(42, 63, 95); fill-opacity: 1; white-space: pre;">2</text></g><g class="ytick"><text text-anchor="end" x="79" y="3.15" transform="translate(0,268.75)" style="font-family: 'Open Sans', verdana, arial, sans-serif; font-size: 9px; fill: rgb(42, 63, 95); fill-opacity: 1; white-space: pre;">5</text></g><g class="ytick"><text text-anchor="end" x="79" y="4.199999999999999" transform="translate(0,240.98)" style="font-family: 'Open Sans', verdana, arial, sans-serif; font-size: 12px; fill: rgb(42, 63, 95); fill-opacity: 1; white-space: pre;">100k</text></g><g class="ytick"><text text-anchor="end" x="79" y="3.15" transform="translate(0,213.2)" style="font-family: 'Open Sans', verdana, arial, sans-serif; font-size: 9px; fill: rgb(42, 63, 95); fill-opacity: 1; white-space: pre;">2</text></g><g class="ytick"><text text-anchor="end" x="79" y="3.15" transform="translate(0,176.49)" style="font-family: 'Open Sans', verdana, arial, sans-serif; font-size: 9px; fill: rgb(42, 63, 95); fill-opacity: 1; white-space: pre;">5</text></g><g class="ytick"><text text-anchor="end" x="79" y="4.199999999999999" transform="translate(0,148.72)" style="font-family: 'Open Sans', verdana, arial, sans-serif; font-size: 12px; fill: rgb(42, 63, 95); fill-opacity: 1; white-space: pre;">1M</text></g><g class="ytick"><text text-anchor="end" x="79" y="3.15" transform="translate(0,120.95)" style="font-family: 'Open Sans', verdana, arial, sans-serif; font-size: 9px; fill: rgb(42, 63, 95); fill-opacity: 1; white-space: pre;">2</text></g></g><g class="overaxes-above"/></g></g><g class="polarlayer"/><g class="ternarylayer"/><g class="geolayer"/><g class="funnelarealayer"/><g class="pielayer"/><g class="treemaplayer"/><g class="sunburstlayer"/><g class="glimages"/><defs id="topdefs-972340"><g class="clips"/></defs><g class="layer-above"><g class="imagelayer"/><g class="shapelayer"/></g><g class="infolayer"><g class="cb3a32de colorbar" transform="translate(80,100)"><rect class="cbbg" x="543" y="0" width="64.859375" height="320" style="fill: rgb(0, 0, 0); fill-opacity: 0; stroke: rgb(68, 68, 68); stroke-opacity: 1; stroke-width: 0;"/><g class="cbfills" transform="translate(0,10)"><rect class="cbfill" x="553" width="30" y="0" height="300" style="stroke: none; fill: url('#g972340-cb3a32de');"/></g><g class="cblines" transform="translate(0,10)"/><g class="cbaxis crisp" transform="translate(0,-100)"><g class="ycb3a32detick"><text text-anchor="start" x="585.9" y="4.199999999999999" transform="translate(0,340.57)" style="font-family: 'Open Sans', verdana, arial, sans-serif; font-size: 12px; fill: rgb(42, 63, 95); fill-opacity: 1; white-space: pre;">1T</text></g><g class="ycb3a32detick"><text text-anchor="start" x="585.9" y="4.199999999999999" transform="translate(0,270.23)" style="font-family: 'Open Sans', verdana, arial, sans-serif; font-size: 12px; fill: rgb(42, 63, 95); fill-opacity: 1; white-space: pre;">2T</text></g><g class="ycb3a32detick"><text text-anchor="start" x="585.9" y="4.199999999999999" transform="translate(0,199.89)" style="font-family: 'Open Sans', verdana, arial, sans-serif; font-size: 12px; fill: rgb(42, 63, 95); fill-opacity: 1; white-space: pre;">3T</text></g><g class="ycb3a32detick"><text text-anchor="start" x="585.9" y="4.199999999999999" transform="translate(0,129.55)" style="font-family: 'Open Sans', verdana, arial, sans-serif; font-size: 12px; fill: rgb(42, 63, 95); fill-opacity: 1; white-space: pre;">4T</text></g></g><g class="cbtitleunshift" transform="translate(-80,-100)"><g class="cbtitle"/></g><rect class="cboutline" x="553" y="10" width="30" height="300" style="stroke: rgb(68, 68, 68); stroke-opacity: 1; fill: none; stroke-width: 0;"/></g><g class="g-gtitle"><text class="gtitle" x="35" y="50" text-anchor="start" dy="0em" style="font-family: 'Open Sans', verdana, arial, sans-serif; font-size: 17px; fill: rgb(42, 63, 95); opacity: 1; font-weight: normal; white-space: pre;">Emigration v. Immigration, 2017</text></g><g class="g-xtitle"><text class="xtitle" x="346" y="461.8" text-anchor="middle" style="font-family: 'Open Sans', verdana, arial, sans-serif; font-size: 14px; fill: rgb(42, 63, 95); opacity: 1; font-weight: normal; white-space: pre;">Immigration</text></g><g class="g-ytitle"><text class="ytitle" transform="rotate(-90,27.309375000000003,260)" x="27.309375000000003" y="260" text-anchor="middle" style="font-family: 'Open Sans', verdana, arial, sans-serif; font-size: 14px; fill: rgb(42, 63, 95); opacity: 1; font-weight: normal; white-space: pre;">Emigration</text></g></g></svg>